<svg width="32" height="31" viewBox="0 0 32 31" fill="none" xmlns="http://www.w3.org/2000/svg">
<path d="M19 25.5C24.6565 25.5 27.4855 25.5 29.242 23.742C31 21.9855 31 19.1565 31 13.5C31 7.8435 31 5.0145 29.242 3.258C27.4855 1.5 24.6565 1.5 19 1.5H13C7.3435 1.5 4.5145 1.5 2.758 3.258C1 5.0145 1 7.8435 1 13.5C1 19.1565 1 21.9855 2.758 23.742C3.7375 24.723 5.05 25.1565 7 25.347" stroke="#F77E23" stroke-width="2" stroke-linecap="round" stroke-linejoin="round"/>
<path d="M15.9999 13.5V13.515M9.99987 13.5V13.515M21.9999 13.5V13.515M18.9999 25.5C17.1459 25.5 15.1029 26.25 13.2384 27.2175C10.2414 28.773 8.74287 29.5515 8.00487 29.055C7.26687 28.56 7.40637 27.0225 7.68687 23.949L7.74987 23.25" stroke="#F77E23" stroke-width="2" stroke-linecap="round"/>
</svg>
