<svg width="33" height="20" viewBox="0 0 33 20" fill="none" xmlns="http://www.w3.org/2000/svg">
<path fill-rule="evenodd" clip-rule="evenodd" d="M18.486 13.7072C17.0313 16.9912 13.7433 19.2822 9.92035 19.2822C6.43064 19.2822 3.3868 17.3731 1.77616 14.5425H5.87428V15.0049L7.95516 13.8489L5.87428 12.5772V13.2708H1.17463C0.775397 12.23 0.556641 11.0998 0.556641 9.91838C0.556641 4.74701 4.74899 0.554688 9.92035 0.554688C13.3623 0.554688 16.3706 2.41183 17.9977 5.1788H14.4288V4.48517L12.348 5.75674L14.4288 6.91274V6.45037H18.6209C18.6859 6.61341 18.7466 6.7788 18.8026 6.94617C19.9777 8.18443 22.2161 8.36388 23.8872 7.63091C24.6989 6.29916 26.165 5.40993 27.8386 5.40993C30.3925 5.40993 32.4627 7.4802 32.4627 10.0341C32.4627 12.5878 30.3925 14.6581 27.8386 14.6581C26.2846 14.6581 24.9095 13.8914 24.0713 12.7158C21.7118 12.1148 20.2089 12.1148 18.486 13.7072Z" fill="white"/>
</svg>
